HIERARCHY
ROOT pelvis
{
  OFFSET 0 100 0
  CHANNELS 6 Xposition Yposition Zposition Zrotation Xrotation Yrotation
  JOINT pelvis_right_femur
  {
    OFFSET -10.78128 -3.44521 -0.5502486
    CHANNELS 3 Zrotation Xrotation Yrotation
    JOINT right_femur_tibia
    {
      OFFSET -0.8047443 -44.0398 -0.1307829
      CHANNELS 3 Zrotation Xrotation Yrotation
      JOINT right_tibia_foot
      {
        OFFSET 3.006224 -47.83518 -5
        CHANNELS 3 Zrotation Xrotation Yrotation
        End Site
        {
          OFFSET 0 -5 15
        }
      }
    }
  }
  JOINT pelvis_left_femur
  {
    OFFSET 10.78128 -3.44521 -0.5502486
    CHANNELS 3 Zrotation Xrotation Yrotation
    JOINT left_femur_tibia
    {
      OFFSET 0.8047443 -44.0398 -0.1307829
      CHANNELS 3 Zrotation Xrotation Yrotation
      JOINT left_tibia_foot
      {
        OFFSET -4.370144 -48.10324 -4.275266
        CHANNELS 3 Zrotation Xrotation Yrotation
        End Site
        {
          OFFSET 0 -5 15
        }
      }
    }
  }
  JOINT pelvis_spine1
  {
    OFFSET 0 6.468898 -3.129235
    CHANNELS 3 Zrotation Xrotation Yrotation
    JOINT spine1
    {
      OFFSET 0 23.15396 4.99043
      CHANNELS 3 Zrotation Xrotation Yrotation
      JOINT spine2
      {
        OFFSET 0 20.79997 -5.064912
        CHANNELS 3 Zrotation Xrotation Yrotation
        JOINT neck
        {
          OFFSET 0 14.38658 9.616178
          CHANNELS 3 Zrotation Xrotation Yrotation
          End Site
          {
            OFFSET 0 20 0
          }
        }
      }
      JOINT right_manubrium
      {
        OFFSET -5.722621 16.35077 3.967754
        CHANNELS 3 Zrotation Xrotation Yrotation
        JOINT right_clavicle
        {
          OFFSET -13.16364 1.694482 -4.693211
          CHANNELS 3 Zrotation Xrotation Yrotation
          JOINT right_humerus
          {
            OFFSET -28.5034 -0.3100689 -2.792744
            CHANNELS 3 Zrotation Xrotation Yrotation
            JOINT right_radius
            {
              OFFSET -25.15693 0.02248979 -1.271978
              CHANNELS 3 Zrotation Xrotation Yrotation
              End Site
              {
                OFFSET -15 0 0
              }
            }
          }
        }
      }
      JOINT left_manubrium
      {
        OFFSET 5.722621 16.35077 3.967754
        CHANNELS 3 Zrotation Xrotation Yrotation
        JOINT left_clavicle
        {
          OFFSET 13.16364 1.694482 -4.693211
          CHANNELS 3 Zrotation Xrotation Yrotation
          JOINT left_humerus
          {
            OFFSET 29.39168 -1.063119 -2.237045
            CHANNELS 3 Zrotation Xrotation Yrotation
            JOINT left_radius
            {
              OFFSET 24.59957 -0.9528479 0.9047498
              CHANNELS 3 Zrotation Xrotation Yrotation
              End Site
              {
                OFFSET 15 -0 -0
              }
            }
          }
        }
      }
    }
  }
}
MOTION
Frames: 17
Frame Time: 0.0416666666667
0 103.5113 0 0.7981044 -1.110713 -0.05958374 3.524528 -17.46276 8.677229 -0 36.88415 -0 -5.621979 -16.18414 -3.80005 -6.743554 11.90956 -23.51804 -0 5.658018 -0 6.309243 -18.21298 25.65065 -1.925735 -2.450081 6.456558 1.956347 11.00625 -7.24221 1.40922 21.98366 4.96119 2.209084 -22.71901 7.687192 5.805014 -20.06551 12.32001 83.98359 36.02756 -15.47351 -0 0 16.70339 -10.34741 9.085159 5.267705 6.129819 -20.81964 0.07291245 -93.57186 19.53823 24.62739 0 0 -9.573182 15.09415 18.2789 -4.72202
0.1963674 103.3971 1.516574 0.2623545 -0.2595935 -0.06256242 3.918179 -20.15495 9.017188 -0 36.93231 -0 -6.080746 -14.53077 -4.074789 -6.305607 11.70127 -23.10785 -0 5.619388 -0 4.227945 -19.69287 24.4465 -1.871076 -2.248191 6.250396 2.00544 11.0154 -7.301697 1.324504 21.82457 5.357204 2.438019 -23.24538 7.898605 5.543742 -19.92267 12.25228 84.72678 35.71004 -16.1598 -0 0 16.06359 -10.65075 9.125653 5.44332 6.143501 -20.92748 -0.1541321 -93.26489 19.78969 23.89113 0 0 -10.56705 14.48903 17.20019 -3.935185
0.4175688 103.1075 3.320338 -0.07521522 1.196055 0.04227415 4.627468 -24.57015 8.752603 -0 32.75566 -0 -5.940439 -13.10999 -3.788226 -6.196803 11.63927 -21.92309 -0 5.167286 -0 4.76829 -20.73122 23.47207 -1.827465 -2.201206 5.87798 2.219779 10.88736 -7.479437 1.313122 21.56873 5.8267 2.723068 -23.91025 8.308358 5.736336 -19.5563 12.17104 85.33201 35.79576 -17.33723 -0 0 15.35095 -9.859861 9.155693 5.065267 6.316564 -21.0787 -0.3651911 -93.17798 20.58222 23.02135 0 0 -12.16186 13.98362 16.59695 -3.075532
0.6688355 102.6067 5.52418 -0.3108761 2.62034 0.2620749 5.29433 -28.8217 8.291218 -0 27.67022 -0 -5.677023 -11.70985 -3.372215 -6.184366 11.82618 -20.64134 -0 4.99782 -0 5.711948 -21.59301 22.53529 -1.784895 -2.108677 5.533106 2.432368 10.76469 -7.640169 1.283672 21.31199 6.247581 2.955002 -24.54921 8.662754 5.747868 -19.27312 12.10097 85.943 35.81995 -18.28407 -0 0 14.63274 -9.369659 9.177292 4.910454 6.430704 -21.21172 -0.5646065 -92.85644 21.00801 22.09032 0 0 -13.73364 13.65674 15.79833 -2.500919
0.9403428 101.9136 8.26544 -0.5450965 3.965117 0.6279906 5.919365 -32.82679 7.606917 -0 22.2854 -0 -5.532485 -9.757036 -2.842005 -6.171855 12.30189 -19.22706 -0 5.46112 -0 6.415563 -22.37475 21.36386 -1.765307 -2.066666 5.211537 2.635294 10.60307 -7.792945 1.256089 21.04931 6.623486 3.166287 -25.0865 8.976697 5.802343 -19.00225 12.02035 86.40922 35.92036 -19.13671 -0 0 14.03181 -8.886974 9.249834 4.80007 6.560396 -21.31992 -0.7370973 -92.53883 21.46803 21.25496 0 0 -15.30524 13.30196 15.08618 -1.884635
1.211474 101.0876 11.67293 -0.8290405 5.033277 1.171621 6.445174 -36.03113 6.72272 -0 17.44657 -0 -5.646071 -7.204907 -2.285189 -6.072909 13.10338 -17.76629 -0 6.917123 -0 6.260943 -22.96112 19.75826 -1.756567 -2.026212 4.935012 2.807382 10.44762 -7.925048 1.220773 20.80914 6.941382 3.343035 -25.52009 9.221728 5.804488 -18.77248 11.94361 86.80623 36.00031 -19.83381 -0 0 13.50504 -8.595348 9.35187 4.801138 6.66814 -21.41309 -0.888883 -92.16559 21.80357 20.48065 0 0 -16.73984 12.97952 14.37464 -1.346142
1.458112 100.2334 15.8641 -1.196013 5.622616 1.897349 6.875518 -37.81199 5.725256 -0 13.84812 -0 -6.045486 -4.351156 -1.816046 -5.796717 14.2156 -16.34338 -0 9.763561 -0 4.77 -23.06062 17.56555 -1.756053 -1.993714 4.704939 2.936231 10.30708 -8.038457 1.177392 20.59745 7.206446 3.497762 -25.8349 9.392526 5.785509 -18.56776 11.86756 87.14565 36.03882 -20.43055 -0 0 13.06073 -8.489201 9.500252 4.885343 6.763889 -21.49604 -1.02766 -91.79994 22.10721 19.80241 0 0 -17.99334 12.59948 13.70017 -0.7693317
1.660817 99.51129 20.90016 -1.666358 5.535787 2.741961 7.328312 -37.49241 4.864957 -0 12.21 -0 -6.65858 -1.866001 -1.596339 -5.237675 15.43702 -15.05264 -0 14.40304 -0 1.747525 -22.14964 14.83794 -1.756965 -1.955044 4.528429 3.011835 10.20265 -8.130783 1.124868 20.42851 7.415065 3.629748 -26.02686 9.480549 5.732488 -18.38992 11.79803 87.45525 35.99413 -20.92988 -0 0 12.68698 -8.608253 9.686928 5.04972 6.838581 -21.57463 -1.157846 -91.4561 22.36334 19.22467 0 0 -18.99158 12.15849 13.06439 -0.161859
1.81714 99.13296 26.71154 -2.250208 4.72039 3.536889 8.012505 -34.72269 4.537152 -0 12.96502 -0 -7.312658 -0.7354306 -1.798716 -4.320264 16.21515 -13.94045 -0 21.07492 -0 -2.336373 -19.61376 12.02967 -1.755808 -1.906909 4.41216 3.023569 10.14788 -8.198755 1.063076 20.31252 7.565611 3.742286 -26.08558 9.478793 5.65233 -18.23832 11.73719 87.74131 35.83814 -21.34016 -0 0 12.39189 -8.97032 9.91143 5.286183 6.888894 -21.64842 -1.284629 -91.17169 22.60278 18.77748 0 0 -19.67195 11.61549 12.48566 0.5240457
1.954904 99.30066 33.03072 -2.914903 3.414868 4.019225 8.970083 -29.98148 4.974311 -0 15.6389 -0 -7.824462 -1.82211 -2.439815 -3.146573 15.6153 -12.91674 -0 29.59294 -0 -6.124054 -15.25322 9.954633 -1.751453 -1.844138 4.36955 2.959141 10.15678 -8.231999 0.9928849 20.2639 7.65191 3.833667 -25.99823 9.379498 5.544475 -18.12334 11.68928 87.99141 35.5485 -21.63114 -0 0 12.19697 -9.599395 10.16296 5.595903 6.904126 -21.7101 -1.40983 -90.97979 22.83416 18.50143 0 0 -19.95723 10.95116 11.98143 1.307719
2.133536 100.0901 39.43954 -3.469367 2.071921 3.9607 9.795783 -24.6081 5.830854 -0 18.48483 -0 -8.160652 -4.89604 -3.150164 -2.151653 12.74287 -11.78088 -0 39.24694 -0 -7.991627 -9.932058 9.182889 -1.748185 -1.765153 4.418714 2.805586 10.2361 -8.212394 0.9159262 20.2966 7.6676 3.900863 -25.74949 9.176788 5.41003 -18.0637 11.65755 88.16355 35.12159 -21.73825 -0 0 12.14502 -10.51407 10.42639 5.990116 6.869761 -21.74195 -1.533048 -90.91393 23.06983 18.45198 0 0 -19.78161 10.14562 11.56608 2.21366
2.407807 101.3778 45.58689 -3.461762 0.8571326 3.361826 9.742629 -19.63469 6.21549 -0 19.44193 -0 -8.377744 -8.108951 -3.345729 -1.913571 7.569877 -10.52613 -0 49.0491 -0 -7.468368 -5.506268 9.560159 -1.757643 -1.671074 4.581267 2.553206 10.37917 -8.112722 0.8347 20.42036 7.60816 3.93809 -25.328 8.871012 5.246087 -18.08869 11.64392 88.18084 34.58534 -21.54975 -0 0 12.29861 -11.72176 10.67846 6.495477 6.766854 -21.7144 -1.649002 -90.98971 23.30692 18.68331 0 0 -19.12015 9.201602 11.2362 3.244067
2.751168 102.9064 51.37738 -2.502902 -0.6822461 2.49476 8.421733 -14.46679 5.570467 -0 18.0271 -0 -8.360561 -9.482901 -2.93826 -2.509913 1.150902 -9.459236 -0 57.71238 -0 -5.961765 -3.537305 10.73433 -1.79892 -1.56877 4.875061 2.202824 10.55663 -7.901753 0.7520549 20.63056 7.476295 3.939162 -24.73497 8.474062 5.048111 -18.2319 11.64682 87.9358 34.0107 -20.92335 -0 0 12.73151 -13.2036 10.89339 7.153988 6.579073 -21.58849 -1.746561 -91.18964 23.52592 19.22632 0 0 -18.03689 8.150999 10.95715 4.37397
3.044601 104.3732 56.89142 -0.9211893 -2.860627 1.71617 6.568848 -8.023065 4.509733 -0 15.48725 -0 -7.87825 -9.170761 -2.52289 -3.105531 -5.407308 -8.592538 -0 62.87375 -0 -5.236493 -3.886207 12.57929 -1.892218 -1.472172 5.304553 1.77293 10.71609 -7.55618 0.6706812 20.89985 7.285197 3.900433 -23.99386 8.012217 4.813708 -18.51958 11.6609 87.3175 33.50069 -19.73098 -0 0 13.50675 -14.9004 11.04989 8.009818 6.30355 -21.32635 -1.808738 -91.45937 23.68892 20.06821 0 0 -16.70354 7.060752 10.66503 5.542775
3.224204 105.4583 62.21613 0.3327286 -5.000962 1.136735 5.414708 -1.047964 3.916073 -0 12.9414 -0 -6.993303 -9.057042 -2.440584 -2.599658 -11.72235 -7.381806 -0 61.63672 -0 -5.298526 -5.014197 14.73092 -2.046758 -1.400271 5.851204 1.301441 10.79727 -7.07726 0.5926391 21.17963 7.057798 3.82477 -23.15495 7.522925 4.55041 -18.95441 11.6791 86.26161 33.14918 -17.93102 -0 0 14.64305 -16.70669 11.13884 9.079205 5.960721 -20.90946 -1.817465 -91.7304 23.75583 21.14821 0 0 -15.35905 6.016053 10.2964 6.668776
3.379039 105.9188 67.43234 0.6497817 -6.112481 0.5695218 5.307492 4.722425 3.784342 -0 10.7664 -0 -6.135412 -10.42839 -2.332414 -0.8019278 -17.55201 -5.586826 -0 53.51556 -0 -5.035951 -5.589983 16.56285 -2.251011 -1.368131 6.469962 0.8378814 10.75954 -6.501314 0.5192726 21.41686 6.821765 3.723336 -22.2902 7.046359 4.277958 -19.50381 11.69593 84.80426 32.99026 -15.62765 -0 0 16.0807 -18.48635 11.16594 10.32046 5.592074 -20.35657 -1.763622 -91.95093 23.70665 22.36438 0 0 -14.22202 5.090847 9.825497 7.67668
3.632429 105.7028 72.64583 0.247741 -6.020994 -0.09480568 5.647257 8.801485 3.748304 -0 9.342773 -0 -5.539271 -13.01367 -1.910145 1.441856 -22.30511 -3.734665 -0 41.54475 -0 -4.123183 -5.378266 17.71817 -2.474809 -1.375448 7.097302 0.4276443 10.60486 -5.892434 0.4518443 21.57658 6.603475 3.613216 -21.47739 6.616638 4.020407 -20.10364 11.70964 83.10061 32.97907 -13.06781 -0 0 17.67448 -20.11097 11.14819 11.63278 5.243131 -19.72584 -1.657413 -92.09965 23.55381 23.58757 0 0 -13.41352 4.322094 9.272931 8.525166
